<?xml version="1.0" encoding="UTF-8"?> <svg xmlns="http://www.w3.org/2000/svg" xmlns:xlink="http://www.w3.org/1999/xlink" viewBox="0 0 542 432.865"> <defs> <style> .cls-1 { fill: #fbb03b; } .cls-2 { fill: url(#linear-gradient); } .cls-3, .cls-5 { opacity: 0.5; } .cls-4, .cls-5 { fill: #fff; } .cls-6 { fill: #180c60; } .cls-7 { fill: url(#linear-gradient-2); } .cls-8 { fill: blue; } .cls-16, .cls-9 { fill: none; stroke-miterlimit: 10; } .cls-9 { stroke: blue; stroke-linecap: round; stroke-linejoin: round; } .cls-10 { fill: url(#linear-gradient-3); } .cls-11 { clip-path: url(#clip-path); } .cls-12 { fill: url(#linear-gradient-4); } .cls-13 { fill: #342ad7; } .cls-14 { fill: url(#linear-gradient-5); } .cls-15 { fill: url(#linear-gradient-6); } .cls-16 { stroke: #fff; } .cls-17 { fill: url(#linear-gradient-7); } .cls-18 { fill: url(#linear-gradient-8); } .cls-19 { fill: url(#linear-gradient-9); } .cls-20 { fill: url(#linear-gradient-10); } .cls-21 { fill: url(#linear-gradient-11); } .cls-22 { fill: url(#linear-gradient-12); } .cls-23 { fill: url(#linear-gradient-13); } .cls-24 { fill: url(#linear-gradient-14); } .cls-25 { fill: url(#linear-gradient-15); } .cls-26 { fill: url(#linear-gradient-16); } .cls-27 { fill: url(#linear-gradient-17); } .cls-28 { fill: url(#linear-gradient-18); } </style> <linearGradient id="linear-gradient" x1="0.321" y1="0.866" x2="0.67" y2="0.153" gradientUnits="objectBoundingBox"> <stop offset="0" stop-color="#3183ee"></stop> <stop offset="1" stop-color="#fa59c1"></stop> </linearGradient> <linearGradient id="linear-gradient-2" x1="0.002" y1="0.5" x2="1.001" y2="0.5" gradientUnits="objectBoundingBox"> <stop offset="0.102" stop-color="#fe744f"></stop> <stop offset="1" stop-color="#fec164"></stop> </linearGradient> <linearGradient id="linear-gradient-3" x1="0.001" y1="0.5" x2="1.001" y2="0.5" gradientUnits="objectBoundingBox"> <stop offset="0" stop-color="#6badf9"></stop> <stop offset="0.476" stop-color="#342ad8"></stop> <stop offset="1" stop-color="#180c60"></stop> </linearGradient> <clipPath id="clip-path"> <path id="Path_9164" data-name="Path 9164" d="M161.335,83.428a43.881,43.881,0,0,1,3.028-17.2l-12.663-4.4c1.789-11.286,5.643-36.886,19.682-51.613,31.519-9.084,87.949,25.738,51.2,44.043l-3.854,17.2-8.946,10.323-.963,6.882-3.028.963.275.826c1.927,6.607-2.2,10.46-5.23,11.011C217.077,124.719,161.335,127.747,161.335,83.428Z" transform="translate(-151.7 -8.721)"></path> </clipPath> <linearGradient id="linear-gradient-4" x1="0.001" y1="0.501" x2="0.998" y2="0.501" xlink:href="#linear-gradient-2"></linearGradient> <linearGradient id="linear-gradient-5" x1="-0.001" y1="0.501" x2="0.998" y2="0.501" xlink:href="#linear-gradient-2"></linearGradient> <linearGradient id="linear-gradient-6" x1="0.002" y1="0.499" x2="1.002" y2="0.499" xlink:href="#linear-gradient-3"></linearGradient> <linearGradient id="linear-gradient-7" x1="0.001" y1="0.499" x2="1" y2="0.499" xlink:href="#linear-gradient-3"></linearGradient> <linearGradient id="linear-gradient-8" x1="0" y1="0.502" x2="1.001" y2="0.502" xlink:href="#linear-gradient-2"></linearGradient> <linearGradient id="linear-gradient-9" x1="0.924" y1="1.102" x2="-0.188" y2="-0.016" xlink:href="#linear-gradient-3"></linearGradient> <linearGradient id="linear-gradient-10" x1="1.089" y1="1.064" x2="-0.178" y2="-0.148" xlink:href="#linear-gradient"></linearGradient> <linearGradient id="linear-gradient-11" x1="0.714" y1="0.89" x2="0.324" y2="0.179" xlink:href="#linear-gradient"></linearGradient> <linearGradient id="linear-gradient-12" x1="-0.637" y1="0.89" x2="-1.029" y2="0.18" xlink:href="#linear-gradient"></linearGradient> <linearGradient id="linear-gradient-13" x1="0.714" y1="0.891" x2="0.323" y2="0.181" xlink:href="#linear-gradient"></linearGradient> <linearGradient id="linear-gradient-14" x1="0.985" y1="0.976" x2="0.358" y2="0.36" xlink:href="#linear-gradient"></linearGradient> <linearGradient id="linear-gradient-15" x1="-1.823" y1="0.976" x2="-2.385" y2="0.361" xlink:href="#linear-gradient"></linearGradient> <linearGradient id="linear-gradient-16" x1="0.089" y1="0.101" x2="0.877" y2="0.865" xlink:href="#linear-gradient"></linearGradient> <linearGradient id="linear-gradient-17" x1="0.854" y1="0.121" x2="0.161" y2="0.862" xlink:href="#linear-gradient"></linearGradient> <linearGradient id="linear-gradient-18" x1="-0.001" y1="0.5" x2="1.001" y2="0.5" xlink:href="#linear-gradient"></linearGradient> </defs> <g id="Group_4057" data-name="Group 4057" transform="translate(0.026)"> <g id="Group_4013" data-name="Group 4013" transform="translate(150.041 27.252)"> <g id="Group_4011" data-name="Group 4011"> <path id="Path_9143" data-name="Path 9143" class="cls-1" d="M185.11,78.846H134.185a7.143,7.143,0,0,1-6.607-4.542L109.548,29.71a7.187,7.187,0,0,1,6.607-9.91H167.08a7.143,7.143,0,0,1,6.607,4.542l18.03,44.594A7.187,7.187,0,0,1,185.11,78.846Z" transform="translate(-109.006 -19.8)"></path> <path id="Path_9144" data-name="Path 9144" class="cls-2" d="M134.148,78.708h50.788a7.15,7.15,0,0,0,6.607-9.91L173.649,24.342a7.143,7.143,0,0,0-6.607-4.542H116.255a7.15,7.15,0,0,0-6.607,9.91l18.03,44.456A6.828,6.828,0,0,0,134.148,78.708Z" transform="translate(-108.968 -19.8)"></path> </g> <g id="Group_4012" data-name="Group 4012" class="cls-3" transform="translate(12.241 11.286)"> <path id="Path_9145" data-name="Path 9145" class="cls-4" d="M175.432,64.336h-41.7a3.314,3.314,0,0,1-2.753-1.927L118.038,29.927c-.413-1.1.138-1.927,1.1-1.927a3.314,3.314,0,0,1,2.753,1.927l12.387,30.555h39.777a3.314,3.314,0,0,1,2.753,1.927A1.391,1.391,0,0,1,175.432,64.336Z" transform="translate(-117.899 -28)"></path> <path id="Path_9146" data-name="Path 9146" class="cls-4" d="M130.2,64.276A4.019,4.019,0,0,1,128.956,64a2.87,2.87,0,0,1-1.652-2.615L131.3,46.658c.275-.826,1.239-1.1,2.34-.551l13.075,6.469,8.12-23.673c.275-.826,1.376-.963,2.477-.413,1.1.688,1.789,1.789,1.514,2.615l-8.533,25.05c-.275.826-1.239.963-2.34.551l-12.938-6.469L131.434,63.45A1.107,1.107,0,0,1,130.2,64.276Z" transform="translate(-114.366 -27.94)"></path> </g> <path id="Path_9147" data-name="Path 9147" class="cls-5" d="M133.46,36.466c.688,1.652-.138,3.166-1.789,3.166a5.239,5.239,0,0,1-4.4-3.166c-.688-1.652.138-3.166,1.789-3.166A5.589,5.589,0,0,1,133.46,36.466Z" transform="translate(-102.225 -14.719)"></path> <path id="Path_9148" data-name="Path 9148" class="cls-5" d="M141.86,30.266c.688,1.652-.138,3.166-1.789,3.166a5.239,5.239,0,0,1-4.4-3.166c-.688-1.652.138-3.166,1.789-3.166A5.808,5.808,0,0,1,141.86,30.266Z" transform="translate(-99.063 -17.053)"></path> </g> <path id="Path_9149" data-name="Path 9149" class="cls-6" d="M187.824,293.34s11.7,6.607,33.446,8.258c0,0-.275-71.846-14.177-99.1l-30.693.413Z" transform="translate(66.4 76.213)"></path> <path id="Path_9150" data-name="Path 9150" class="cls-6" d="M222.23,213.989S234.617,249.775,229.525,353H115.7s2.34-45.42,8.258-66.065L207.5,212.2Z" transform="translate(43.555 79.863)"></path> <g id="Group_4021" data-name="Group 4021" transform="translate(279.824 158.636)"> <path id="Path_9151" data-name="Path 9151" class="cls-7" d="M275.551,151.239c-4.542-7.845-16.1-13.351-16.1-13.351-8.12-1.927-12.662.688-12.662.688,1.1-7.432,7.57-13.764,7.57-13.764,4.267-.413,16.241.963,16.241.963a38.455,38.455,0,0,0,1.652-7.157,69.814,69.814,0,0,0-26.288-3.166c-6.744,4.955-13.9,19.407-16.241,24.5l-4.68-1.239s-7.432,11.837-8.258,23.811a16,16,0,0,0-3.028-.826L211,180.968l12.112,9.91,18.994-.688a19.305,19.305,0,0,0-.826-5.643c11.011-2.89,17.893-15.278,17.893-15.278a21.048,21.048,0,0,0,2.065-3.166,32.139,32.139,0,0,0,5.23-.688C271.009,161.424,275.551,151.239,275.551,151.239Z" transform="translate(-200.402 -115.258)"></path> <path id="Path_9152" data-name="Path 9152" class="cls-6" d="M206.466,160.524,216.788,149.1s-.963,23.673,28.491,28.491l-24.086,23.123L203.3,197.961Z" transform="translate(-203.3 -102.521)"></path> <g id="Group_4014" data-name="Group 4014" transform="translate(29.729 25.108)"> <path id="Path_9153" data-name="Path 9153" class="cls-8" d="M231.094,164.743a.7.7,0,0,1-.688-.826c2.753-10.6-4.817-13.764-5.092-13.9a.757.757,0,0,1-.413-.688l.963-7.157c0-.138.138-.413.275-.413a.828.828,0,0,1,.551-.138l7.845,1.927,1.514-6.744-7.57-1.927a.7.7,0,0,1,.275-1.376l8.121,2.065a.755.755,0,0,1,.551.826l-1.789,7.983c0,.138-.138.275-.275.413a.827.827,0,0,1-.551.138L227.1,143l-.688,5.918c1.789.963,7.432,4.68,5.781,13.764,2.34-1.1,7.57-2.89,16.241-1.927a.7.7,0,0,1-.275,1.376c-11.424-1.376-16.654,2.477-16.792,2.477C231.369,164.743,231.231,164.743,231.094,164.743Z" transform="translate(-224.9 -133.5)"></path> </g> <g id="Group_4015" data-name="Group 4015" transform="translate(51.338 37.495)"> <path id="Path_9154" data-name="Path 9154" class="cls-9" d="M240.6,142.5" transform="translate(-240.6 -142.5)"></path> </g> <g id="Group_4016" data-name="Group 4016" transform="translate(44.169 38.446)"> <path id="Path_9155" data-name="Path 9155" class="cls-8" d="M250.681,156.279a.506.506,0,0,1-.413-.138c-.551-.275-11.974-8.12-14.727-11.837a.688.688,0,0,1,1.1-.826c2.753,3.579,14.314,11.424,14.452,11.561a.68.68,0,0,1,.138.963C251.094,156.279,250.956,156.279,250.681,156.279Z" transform="translate(-235.391 -143.191)"></path> </g> <g id="Group_4017" data-name="Group 4017" transform="translate(43.355 23.402)"> <path id="Path_9156" data-name="Path 9156" class="cls-8" d="M236.314,148.693c-.138,0-.275,0-.275-.138a.79.79,0,0,1-.275-.963l4.4-7.845-4.542.963a.827.827,0,0,1-.551-.138.715.715,0,0,1-.275-.551,15.04,15.04,0,0,1,2.34-7.432.709.709,0,1,1,1.239.688,14.684,14.684,0,0,0-2.065,5.781l5.093-.963c.275,0,.551,0,.688.275a.614.614,0,0,1,0,.688l-5.23,9.084C236.727,148.556,236.452,148.693,236.314,148.693Z" transform="translate(-234.8 -132.261)"></path> </g> <g id="Group_4018" data-name="Group 4018" transform="translate(51.338 37.495)"> <path id="Path_9157" data-name="Path 9157" class="cls-9" d="M240.6,142.5" transform="translate(-240.6 -142.5)"></path> </g> <g id="Group_4019" data-name="Group 4019" transform="translate(58.082 24.695)"> <path id="Path_9158" data-name="Path 9158" class="cls-9" d="M245.5,133.2" transform="translate(-245.5 -133.2)"></path> </g> <g id="Group_4020" data-name="Group 4020" transform="translate(50.581 36.876)"> <path id="Path_9159" data-name="Path 9159" class="cls-8" d="M254.433,155.057a.506.506,0,0,1-.413-.138c-.413-.275-9.772-7.432-13.764-11.7a.681.681,0,0,1,.963-.963c3.854,4.129,13.488,11.424,13.488,11.561a.68.68,0,0,1,.138.963C254.846,154.919,254.571,155.057,254.433,155.057Z" transform="translate(-240.05 -142.05)"></path> </g> <path id="Path_9160" data-name="Path 9160" class="cls-6" d="M227.138,173.308,235.4,165.6a7.778,7.778,0,0,1,.826,5.643L227,175.1v-1.789Z" transform="translate(-194.38 -96.311)"></path> <path id="Path_9161" data-name="Path 9161" class="cls-6" d="M210.1,158.222,214.229,149l3.028.826-3.854,6.607Z" transform="translate(-200.741 -102.558)"></path> </g> <g id="Group_4023" data-name="Group 4023" transform="translate(208.804 12.003)"> <path id="Path_9162" data-name="Path 9162" class="cls-10" d="M161.335,83.428a43.881,43.881,0,0,1,3.028-17.2l-12.663-4.4c1.789-11.286,5.643-36.886,19.682-51.613,31.519-9.084,87.949,25.738,51.2,44.043l-3.854,17.2-8.946,10.323-.963,6.882-3.028.963.275.826c1.927,6.607-2.2,10.46-5.23,11.011C217.077,124.719,161.335,127.747,161.335,83.428Z" transform="translate(-151.7 -8.721)"></path> <g id="Group_4022" data-name="Group 4022" class="cls-11"> <path id="Path_9163" data-name="Path 9163" class="cls-12" d="M217.261,48.262c5.643-17.617-30-24.362-34.96-23.123,0,0-14.039,28.491-13.9,35.51s5.505,18.443,10.736,21.471c2.753-7.019,15.278-.688,21.609,2.753l6.331,3.3,12.25-26.013Z" transform="translate(-145.415 -2.596)"></path> </g> </g> <path id="Path_9165" data-name="Path 9165" class="cls-13" d="M192.118,52.458l1.376-1.376a.92.92,0,0,0-.138-1.376c-2.34-1.514-8.946-5.368-13.626-5.505a.453.453,0,0,0-.275.826c2.753,1.514,8.671,5.093,11.286,7.57A1.067,1.067,0,0,0,192.118,52.458Z" transform="translate(67.473 16.635)"></path> <path id="Path_9166" data-name="Path 9166" class="cls-13" d="M202.809,54.941a17.126,17.126,0,0,0-3.028-1.789,2.423,2.423,0,0,0-3.3,1.652c-.826,3.028-2.2,8.258-2.477,10.46Z" transform="translate(73.023 19.933)"></path> <path id="Path_9167" data-name="Path 9167" class="cls-13" d="M194.884,67.346c-1.376-.688-11.011-3.854-3.028,1.1Z" transform="translate(71.038 24.733)"></path> <path id="Path_9168" data-name="Path 9168" class="cls-13" d="M188.105,54.88c3.3-2.2-3.716-3.716-8.121-4.267-.826-.138-1.789,0-.138.688C182.462,52.4,186.591,53.916,188.105,54.88Z" transform="translate(67.357 19.031)"></path> <path id="Path_9169" data-name="Path 9169" class="cls-14" d="M165.813,72.387a43.882,43.882,0,0,1,3.028-17.2V45.548s.275-6.331-4.955-7.432c-4.542-.963-4.542,10.736-4.4,13.764l-3.166-1.1S142.69,82.159,139.8,93.445c0,0,20.921,28.078,47.484,33.583,0,0,4.955-13.626,6.744-20.095C181.641,106.107,165.813,95.922,165.813,72.387Z" transform="translate(52.625 14.324)"></path> <path id="Path_9170" data-name="Path 9170" class="cls-15" d="M239.293,136.787c1.789-14.865-4.129-24.5-4.129-24.5a79.857,79.857,0,0,0-25.187-15.553c-1.927,4.955-5.918,17.342-5.918,17.342l-9.91-10.873-1.239-1.376S157.4,78.016,154.784,74.3c0,0-6.194,7.983-10.46,14.176,0,0,.551.688,1.514,1.927-.963.688-3.579,2.477-7.295,5.368A72.011,72.011,0,0,0,114.732,174.5c9.5,29.592,21.334,70.332,20.645,87.124-.963,23.811-24.5,76.113-40.878,88.087,0,0,61.248,15.828,102.263-3.716,0,0,38.813-65.377,33.583-128.689l2.477.275,17.893,3.441C253.745,161.836,239.293,136.787,239.293,136.787Z" transform="translate(35.576 27.963)"></path> <g id="Group_4024" data-name="Group 4024" transform="translate(264.546 231.091)"> <path id="Path_9171" data-name="Path 9171" class="cls-16" d="M192.2,167.9" transform="translate(-192.2 -167.9)"></path> </g> <g id="Group_4025" data-name="Group 4025" transform="translate(268.49 244.57)"> <rect id="Rectangle_4137" data-name="Rectangle 4137" class="cls-4" width="1.376" height="18.443" transform="translate(0 1.352) rotate(-79.251)"></rect> </g> <g id="Group_4026" data-name="Group 4026" transform="translate(264.821 139.976)"> <path id="Path_9172" data-name="Path 9172" class="cls-4" d="M193.639,116.014l-1.239-.551c1.514-3.3,5.505-13.626,5.505-13.764l1.239.413C199.006,102.526,195.29,112.711,193.639,116.014Z" transform="translate(-192.4 -101.7)"></path> </g> <g id="Group_4027" data-name="Group 4027" transform="translate(184.648 121.326)"> <path id="Path_9173" data-name="Path 9173" class="cls-4" d="M167.251,117.535a.506.506,0,0,1-.413-.138A202.944,202.944,0,0,1,134.356,89.32a.681.681,0,0,1,.963-.963,209.472,209.472,0,0,0,31.519,27.39c1.514-3.441,7.295-16.929,10.873-19.957a.68.68,0,0,1,.963.138l14.727,17.48a.688.688,0,0,1-1.1.826L177.987,97.3c-3.854,4.129-10.185,19.544-10.323,19.682l-.413.413C167.389,117.535,167.389,117.535,167.251,117.535Z" transform="translate(-134.15 -88.15)"></path> </g> <g id="Group_4028" data-name="Group 4028" transform="translate(248.856 163.374)"> <path id="Path_9174" data-name="Path 9174" class="cls-4" d="M212.456,202.8,192.5,200.318l-.138-.413c-4.817-16.654-10.047-66.34-11.561-81.067l1.376-.138c1.514,14.589,6.607,63.45,11.286,80.379l17.2,2.065c-1.514-7.295-11.149-54.366-17.617-76.113l1.376-.413c7.019,23.4,17.755,76.526,17.893,77.076Z" transform="translate(-180.8 -118.7)"></path> </g> <g id="Group_4029" data-name="Group 4029" transform="translate(237.294 146.386)"> <path id="Path_9175" data-name="Path 9175" class="cls-4" d="M196.624,130.778h0c-3.579-.275-20.37-9.772-24.086-22.985l-.138-.688.688-.138c.138,0,15.828-3.579,27.94,6.607l.138.138v.275c0,.275.963,5.368-3.579,16.241C197.587,130.365,197.312,130.778,196.624,130.778Zm-22.435-22.572c3.991,12.25,19.957,20.921,22.435,21.2,3.716-8.946,3.579-13.9,3.441-15C189.88,106,177.217,107.655,174.189,108.205Z" transform="translate(-172.4 -106.357)"></path> </g> <g id="Group_4030" data-name="Group 4030" transform="translate(146.446 159.399)"> <path id="Path_9176" data-name="Path 9176" class="cls-17" d="M249.369,185.755l18.994-35.1a15.82,15.82,0,0,1,13.9-8.258h50.512a6.071,6.071,0,0,1,5.368,8.946l-33.858,65.1a15.863,15.863,0,0,1-14.039,8.533H241.386a6.117,6.117,0,0,1-5.643-8.533Z" transform="translate(-57.909 -105.806)"></path> <path id="Path_9177" data-name="Path 9177" class="cls-6" d="M215.143,178.4s8.809,28.215-2.477,53.265L196.7,221.2l.688-19.957Z" transform="translate(-72.407 -92.257)"></path> <path id="Path_9178" data-name="Path 9178" class="cls-18" d="M208.748,186.588l14.452.826s8.809-15.966,19.131-18.03,24.912-.413,24.912-.413l-3.854,6.882,22.572,1.376L281.7,187l-11.561,1.239a65.846,65.846,0,0,0-3.716,9.222l-3.3.688a59.031,59.031,0,0,1-2.2,9.084l-3.441.688s-1.789,6.056-3.3,7.708a87.5,87.5,0,0,1-25.187.826s-14.865,1.1-31.381,3.3l7.708-29.454Z" transform="translate(-72.068 -96.041)"></path> <path id="Path_9179" data-name="Path 9179" class="cls-19" d="M249.131,201.955c-24.912-1.927-51.613-3.166-72.4-3.991a36.064,36.064,0,0,0-3.854.138c-5.368-41.979-19.82-64.689-31.381-76.663a19.08,19.08,0,0,0-29.316,2.753c-4.68,6.882-5.643,11.7-5.643,11.7-2.753,37.988,34.409,123.872,34.409,123.872,89.6,2.065,105.7-4.542,105.7-4.542A65,65,0,0,1,249.131,201.955Z" transform="translate(-106.394 -115.812)"></path> <path id="Path_9180" data-name="Path 9180" class="cls-4" d="M283.622,178.752c-2.89,6.056-8.258,9.5-11.7,7.845-3.579-1.789-3.991-7.983-1.1-14.039s8.258-9.5,11.7-7.845S286.512,172.7,283.622,178.752Z" transform="translate(-45.229 -97.563)"></path> </g> <ellipse id="Ellipse_454" data-name="Ellipse 454" class="cls-6" cx="5.505" cy="2.615" rx="5.505" ry="2.615" transform="translate(240.047 284.769)"></ellipse> <ellipse id="Ellipse_455" data-name="Ellipse 455" class="cls-6" cx="5.505" cy="2.615" rx="5.505" ry="2.615" transform="translate(259.041 285.044)"></ellipse> <g id="Group_4033" data-name="Group 4033" transform="translate(38.777 171.081)"> <path id="Path_9181" data-name="Path 9181" class="cls-20" d="M97.719,177.7H46.656a4.3,4.3,0,0,1-4.129-3.028L28.35,129.943a4.391,4.391,0,0,1,4.129-5.643H83.542a4.3,4.3,0,0,1,4.129,3.028l14.176,44.732A4.345,4.345,0,0,1,97.719,177.7Z" transform="translate(-28.167 -124.3)"></path> <path id="Path_9182" data-name="Path 9182" class="cls-5" d="M51.672,137.9c1.514,4.542-1.1,8.4-5.643,8.4s-9.5-3.716-11.011-8.4c-1.514-4.542,1.1-8.4,5.643-8.4C45.2,129.638,50.158,133.354,51.672,137.9Z" transform="translate(-25.75 -122.343)"></path> <path id="Path_9183" data-name="Path 9183" class="cls-5" d="M78.972,154.9c1.514,4.542-1.1,8.4-5.643,8.4s-9.5-3.716-11.011-8.4c-1.514-4.542,1.1-8.4,5.643-8.4C72.641,146.638,77.458,150.354,78.972,154.9Z" transform="translate(-15.476 -115.945)"></path> <g id="Group_4031" data-name="Group 4031" class="cls-3" transform="translate(28.879 7.295)"> <path id="Path_9184" data-name="Path 9184" class="cls-4" d="M74.131,133.179H51.559a2.833,2.833,0,0,1-2.34-1.789,1.3,1.3,0,0,1,1.239-1.789H73.03a2.833,2.833,0,0,1,2.34,1.789C75.645,132.49,75.095,133.179,74.131,133.179Z" transform="translate(-49.149 -129.6)"></path> <path id="Path_9185" data-name="Path 9185" class="cls-4" d="M66.135,137.579H53.059a2.833,2.833,0,0,1-2.34-1.789A1.3,1.3,0,0,1,51.958,134H65.033a2.833,2.833,0,0,1,2.34,1.789C67.511,136.753,67.1,137.579,66.135,137.579Z" transform="translate(-48.584 -127.944)"></path> <path id="Path_9186" data-name="Path 9186" class="cls-4" d="M67.435,141.979H54.359a2.833,2.833,0,0,1-2.34-1.789,1.3,1.3,0,0,1,1.239-1.789H66.333a2.833,2.833,0,0,1,2.34,1.789A1.3,1.3,0,0,1,67.435,141.979Z" transform="translate(-48.095 -126.288)"></path> </g> <g id="Group_4032" data-name="Group 4032" class="cls-3" transform="translate(14.977 30.28)"> <path id="Path_9187" data-name="Path 9187" class="cls-4" d="M64.031,149.879H41.459a2.833,2.833,0,0,1-2.34-1.789,1.3,1.3,0,0,1,1.239-1.789H62.93a2.833,2.833,0,0,1,2.34,1.789C65.408,149.19,64.995,149.879,64.031,149.879Z" transform="translate(-39.049 -146.3)"></path> <path id="Path_9188" data-name="Path 9188" class="cls-4" d="M55.935,154.279H42.859a2.833,2.833,0,0,1-2.34-1.789,1.3,1.3,0,0,1,1.239-1.789H54.833a2.833,2.833,0,0,1,2.34,1.789A1.3,1.3,0,0,1,55.935,154.279Z" transform="translate(-38.522 -144.644)"></path> <path id="Path_9189" data-name="Path 9189" class="cls-4" d="M57.335,158.679H44.259a2.833,2.833,0,0,1-2.34-1.789,1.3,1.3,0,0,1,1.239-1.789H56.233a2.833,2.833,0,0,1,2.34,1.789A1.3,1.3,0,0,1,57.335,158.679Z" transform="translate(-37.995 -142.988)"></path> </g> </g> <g id="Group_4035" data-name="Group 4035" transform="translate(405.149 81.618)"> <g id="Group_4034" data-name="Group 4034"> <path id="Path_9190" data-name="Path 9190" class="cls-21" d="M388.147,147.387l-83.27-.275a10.5,10.5,0,0,1-9.5-15l31.106-66.753A10.653,10.653,0,0,1,336.12,59.3l83.27.275a10.5,10.5,0,0,1,9.5,15l-31.106,66.753A10.9,10.9,0,0,1,388.147,147.387Z" transform="translate(-294.356 -59.3)"></path> </g> <path id="Path_9191" data-name="Path 9191" class="cls-5" d="M348.807,96.186l-26.151-.138c-1.652,0-2.477-1.239-1.789-2.89l8.4-18.168a5.492,5.492,0,0,1,4.4-2.89l26.151.138c1.652,0,2.477,1.239,1.789,2.89l-8.4,18.168A5.2,5.2,0,0,1,348.807,96.186Z" transform="translate(-284.47 -54.483)"></path> <path id="Path_9192" data-name="Path 9192" class="cls-5" d="M380.12,76.29l-25.05-.138a.872.872,0,0,1-.826-1.376,2.952,2.952,0,0,1,2.2-1.376l25.05.138a.872.872,0,0,1,.826,1.376A2.952,2.952,0,0,1,380.12,76.29Z" transform="translate(-271.878 -53.993)"></path> <path id="Path_9193" data-name="Path 9193" class="cls-5" d="M376.982,82.89l-24.912-.138a.872.872,0,0,1-.826-1.376,2.617,2.617,0,0,1,2.2-1.376l25.05.138a.872.872,0,0,1,.826,1.376A2.976,2.976,0,0,1,376.982,82.89Z" transform="translate(-273.007 -51.509)"></path> <path id="Path_9194" data-name="Path 9194" class="cls-5" d="M374.02,89.49l-25.05-.138a.872.872,0,0,1-.826-1.376,2.952,2.952,0,0,1,2.2-1.376l25.05.138a.872.872,0,0,1,.826,1.376A2.952,2.952,0,0,1,374.02,89.49Z" transform="translate(-274.173 -49.025)"></path> <path id="Path_9195" data-name="Path 9195" class="cls-5" d="M380.78,96.09l-61.11-.138a.872.872,0,0,1-.826-1.376,2.617,2.617,0,0,1,2.2-1.376l61.11.138a.872.872,0,0,1,.826,1.376A2.73,2.73,0,0,1,380.78,96.09Z" transform="translate(-285.201 -46.541)"></path> <path id="Path_9196" data-name="Path 9196" class="cls-5" d="M377.78,102.59l-61.11-.138a.872.872,0,0,1-.826-1.376,2.617,2.617,0,0,1,2.2-1.376l61.11.138a.872.872,0,0,1,.826,1.376A2.617,2.617,0,0,1,377.78,102.59Z" transform="translate(-286.33 -44.095)"></path> <path id="Path_9197" data-name="Path 9197" class="cls-5" d="M374.68,109.19l-61.11-.138a.872.872,0,0,1-.826-1.376,2.952,2.952,0,0,1,2.2-1.376l61.11.138a.872.872,0,0,1,.826,1.376A2.617,2.617,0,0,1,374.68,109.19Z" transform="translate(-287.496 -41.611)"></path> </g> <g id="Group_4037" data-name="Group 4037" transform="translate(53.356)"> <g id="Group_4036" data-name="Group 4036"> <path id="Path_9198" data-name="Path 9198" class="cls-22" d="M62.351,50.237,109.7,50.1a5.93,5.93,0,0,0,5.368-8.533L97.586,3.441A6.129,6.129,0,0,0,92.081,0L44.734.138a5.93,5.93,0,0,0-5.368,8.533L56.984,46.659A5.831,5.831,0,0,0,62.351,50.237Z" transform="translate(-38.758 0)"></path> </g> <path id="Path_9199" data-name="Path 9199" class="cls-5" d="M67.661,19.374,62.844,9.052c-.413-.963,0-1.652.963-1.652H78.672a2.876,2.876,0,0,1,2.477,1.652l4.817,10.323c.413.963,0,1.652-.963,1.652H70.138A2.876,2.876,0,0,1,67.661,19.374Z" transform="translate(-29.754 2.785)"></path> <path id="Path_9200" data-name="Path 9200" class="cls-5" d="M50.352,9.789H64.529c.551,0,.688-.413.551-.826A1.662,1.662,0,0,0,63.841,8H49.664c-.551,0-.688.413-.551.826A1.322,1.322,0,0,0,50.352,9.789Z" transform="translate(-34.88 3.011)"></path> <path id="Path_9201" data-name="Path 9201" class="cls-5" d="M52.052,13.452H66.229c.551,0,.688-.413.551-.826a1.833,1.833,0,0,0-1.239-.826H51.364c-.551,0-.688.413-.551.826A1.394,1.394,0,0,0,52.052,13.452Z" transform="translate(-34.24 4.441)"></path> <path id="Path_9202" data-name="Path 9202" class="cls-5" d="M53.752,17.252H67.929c.551,0,.688-.413.551-.826a1.833,1.833,0,0,0-1.239-.826H53.064c-.551,0-.688.413-.551.826A1.833,1.833,0,0,0,53.752,17.252Z" transform="translate(-33.6 5.871)"></path> <path id="Path_9203" data-name="Path 9203" class="cls-5" d="M55.552,20.989l34.822-.138c.551,0,.688-.413.551-.826a1.833,1.833,0,0,0-1.239-.826l-34.822.138c-.551,0-.688.413-.551.826A1.2,1.2,0,0,0,55.552,20.989Z" transform="translate(-32.923 7.226)"></path> <path id="Path_9204" data-name="Path 9204" class="cls-5" d="M57.29,24.789l34.822-.138c.551,0,.688-.413.551-.826A1.825,1.825,0,0,0,91.286,23l-34.822.138c-.551,0-.688.413-.551.826A2.469,2.469,0,0,0,57.29,24.789Z" transform="translate(-32.321 8.656)"></path> <path id="Path_9205" data-name="Path 9205" class="cls-5" d="M59.052,28.489l34.822-.138c.551,0,.688-.413.551-.826a1.833,1.833,0,0,0-1.239-.826l-34.822.138c-.551,0-.688.413-.551.826A1.2,1.2,0,0,0,59.052,28.489Z" transform="translate(-31.606 10.049)"></path> </g> <g id="Group_4039" data-name="Group 4039" transform="translate(457.282 229.164)"> <g id="Group_4038" data-name="Group 4038"> <path id="Path_9206" data-name="Path 9206" class="cls-23" d="M390.82,221.554l-52.026-.138a6.535,6.535,0,0,1-5.918-9.359l19.407-41.7a6.686,6.686,0,0,1,6.056-3.854l52.026.138A6.535,6.535,0,0,1,416.283,176l-19.407,41.7A6.461,6.461,0,0,1,390.82,221.554Z" transform="translate(-332.234 -166.5)"></path> </g> <path id="Path_9207" data-name="Path 9207" class="cls-5" d="M366.223,189.565H349.844c-1.1,0-1.514-.826-1.1-1.789l5.23-11.286a3.259,3.259,0,0,1,2.753-1.789H373.1c1.1,0,1.514.826,1.1,1.789l-5.23,11.286A3.259,3.259,0,0,1,366.223,189.565Z" transform="translate(-326.079 -163.414)"></path> <path id="Path_9208" data-name="Path 9208" class="cls-5" d="M385.87,177.152H370.18c-.551,0-.826-.413-.551-.826a1.514,1.514,0,0,1,1.376-.826h15.553c.551,0,.826.413.551.826A1.582,1.582,0,0,1,385.87,177.152Z" transform="translate(-318.2 -163.113)"></path> <path id="Path_9209" data-name="Path 9209" class="cls-5" d="M383.833,181.252H368.28c-.551,0-.826-.413-.551-.826a1.514,1.514,0,0,1,1.376-.826h15.553c.551,0,.826.413.551.826A1.616,1.616,0,0,1,383.833,181.252Z" transform="translate(-318.915 -161.57)"></path> <path id="Path_9210" data-name="Path 9210" class="cls-5" d="M381.971,185.352H366.28c-.551,0-.826-.413-.551-.826a1.514,1.514,0,0,1,1.376-.826H382.8c.551,0,.826.413.551.826A1.616,1.616,0,0,1,381.971,185.352Z" transform="translate(-319.668 -160.027)"></path> <path id="Path_9211" data-name="Path 9211" class="cls-5" d="M386.205,189.489l-38.125-.138c-.551,0-.826-.413-.551-.826a1.514,1.514,0,0,1,1.376-.826l38.125.138c.551,0,.826.413.551.826A1.616,1.616,0,0,1,386.205,189.489Z" transform="translate(-326.517 -158.521)"></path> <path id="Path_9212" data-name="Path 9212" class="cls-5" d="M384.305,193.589l-38.125-.138c-.551,0-.826-.413-.551-.826a1.514,1.514,0,0,1,1.376-.826l38.125.138c.551,0,.826.413.551.826A1.514,1.514,0,0,1,384.305,193.589Z" transform="translate(-327.233 -156.978)"></path> <path id="Path_9213" data-name="Path 9213" class="cls-5" d="M382.405,197.789l-38.125-.138c-.551,0-.826-.413-.551-.826a1.514,1.514,0,0,1,1.376-.826l38.125.138c.551,0,.826.413.551.826A1.825,1.825,0,0,1,382.405,197.789Z" transform="translate(-327.948 -155.397)"></path> </g> <g id="Group_4042" data-name="Group 4042" transform="translate(45.885 256.278)"> <path id="Path_9214" data-name="Path 9214" class="cls-24" d="M154.683,278.967H70.175a10.222,10.222,0,0,1-9.635-6.744L33.977,199.964A10.205,10.205,0,0,1,43.611,186.2H128.12a10.222,10.222,0,0,1,9.635,6.744L164.318,265.2A10.244,10.244,0,0,1,154.683,278.967Z" transform="translate(-33.331 -186.2)"></path> <g id="Group_4040" data-name="Group 4040" class="cls-3" transform="translate(29.93 56.155)"> <path id="Path_9215" data-name="Path 9215" class="cls-4" d="M96.262,233.056H59.376a4.778,4.778,0,0,1-4.129-3.028c-.551-1.652.275-3.028,1.927-3.028H94.06a4.778,4.778,0,0,1,4.129,3.028C98.739,231.68,97.914,233.056,96.262,233.056Z" transform="translate(-55.077 -227)"></path> <path id="Path_9216" data-name="Path 9216" class="cls-4" d="M83.647,240.656H62.176a4.778,4.778,0,0,1-4.129-3.028c-.551-1.652.275-3.028,1.927-3.028H81.445a4.778,4.778,0,0,1,4.129,3.028C86.124,239.28,85.3,240.656,83.647,240.656Z" transform="translate(-54.023 -224.14)"></path> <path id="Path_9217" data-name="Path 9217" class="cls-4" d="M86.447,248.156H64.976a4.778,4.778,0,0,1-4.129-3.028c-.551-1.652.275-3.028,1.927-3.028H84.245a4.778,4.778,0,0,1,4.129,3.028C88.924,246.917,88.1,248.156,86.447,248.156Z" transform="translate(-52.969 -221.317)"></path> </g> <g id="Group_4041" data-name="Group 4041" class="cls-3" transform="translate(19.235 8.211)"> <ellipse id="Ellipse_456" data-name="Ellipse 456" class="cls-4" cx="9.222" cy="13.351" rx="9.222" ry="13.351" transform="matrix(0.621, -0.784, 0.784, 0.621, 0, 14.456)"></ellipse> <path id="Path_9218" data-name="Path 9218" class="cls-4" d="M65.065,208.5c-9.222,0-14.865,5.781-14.865,13.764,0,3.441,4.129,7.157,7.845,7.157H87.362c3.716,0,5.23-3.579,2.615-7.157C84.2,214.281,74.286,208.5,65.065,208.5Z" transform="translate(-46.217 -186.018)"></path> </g> <path id="Path_9219" data-name="Path 9219" class="cls-5" d="M133.3,265.431h-23.26a4.778,4.778,0,0,1-4.129-3.028l-23.26-63.175c-.551-1.652.275-3.028,1.927-3.028h23.26a4.778,4.778,0,0,1,4.129,3.028l23.26,63.175C135.912,264.192,135.086,265.431,133.3,265.431ZM111,259.512h17.067l-21.058-57.119H89.941Z" transform="translate(-14.834 -182.436)"></path> </g> <g id="Group_4045" data-name="Group 4045" transform="translate(368.863 34.271)"> <path id="Path_9220" data-name="Path 9220" class="cls-25" d="M272.407,73.21h44.043a7.076,7.076,0,0,0,5.781-3.441L343.7,32.057c2.065-3.441.138-7.157-3.579-7.157H296.081a7.076,7.076,0,0,0-5.781,3.441L268.691,65.915C266.9,69.494,268.691,73.21,272.407,73.21Z" transform="translate(-267.992 -24.9)"></path> <g id="Group_4043" data-name="Group 4043" class="cls-3" transform="translate(32.992 29.316)"> <path id="Path_9221" data-name="Path 9221" class="cls-4" d="M292.84,49.228h19.269a3.226,3.226,0,0,0,2.477-1.514c.551-.826.138-1.514-.688-1.514H294.629a3.226,3.226,0,0,0-2.477,1.514C291.739,48.54,292.014,49.228,292.84,49.228Z" transform="translate(-291.962 -46.2)"></path> <path id="Path_9222" data-name="Path 9222" class="cls-4" d="M296.457,53.228h11.148a3.226,3.226,0,0,0,2.477-1.514c.551-.826.138-1.514-.688-1.514H298.246a3.226,3.226,0,0,0-2.477,1.514C295.218,52.54,295.631,53.228,296.457,53.228Z" transform="translate(-290.624 -44.695)"></path> <path id="Path_9223" data-name="Path 9223" class="cls-4" d="M294.14,57.128h11.149a3.226,3.226,0,0,0,2.477-1.514c.413-.826.138-1.514-.688-1.514H295.929a3.226,3.226,0,0,0-2.477,1.514C293.039,56.44,293.314,57.128,294.14,57.128Z" transform="translate(-291.473 -43.227)"></path> </g> <g id="Group_4044" data-name="Group 4044" class="cls-3" transform="translate(39.034 6.607)"> <path id="Path_9224" data-name="Path 9224" class="cls-4" d="M305.133,35.481c-1.789,3.166-.688,5.781,2.615,5.781s7.295-2.615,9.084-5.781.688-5.781-2.615-5.781C311.051,29.7,306.922,32.315,305.133,35.481Z" transform="translate(-293.368 -29.7)"></path> <path id="Path_9225" data-name="Path 9225" class="cls-4" d="M311.833,36.5c4.817,0,7.157,3.028,6.331,7.157a5.708,5.708,0,0,1-4.817,3.716H298.07c-1.927,0-2.34-1.927-.688-3.716C301.235,39.528,307.016,36.5,311.833,36.5Z" transform="translate(-296.352 -27.141)"></path> </g> <path id="Path_9226" data-name="Path 9226" class="cls-5" d="M272.677,64.609l18.856-32.895A3.464,3.464,0,0,1,294.01,30.2h12.112c.826,0,1.239.688.688,1.514L287.954,64.609a3.464,3.464,0,0,1-2.477,1.514H273.365C272.4,66.123,272.126,65.435,272.677,64.609Zm30-31.381h-8.946L276.668,62.957h8.946Z" transform="translate(-266.334 -22.905)"></path> </g> <g id="Group_4049" data-name="Group 4049" transform="translate(-0.026 41.015)"> <g id="Group_4046" data-name="Group 4046"> <path id="Path_9227" data-name="Path 9227" class="cls-26" d="M134.343,126.971l-94.831.138a8.794,8.794,0,0,1-8.258-5.643L.56,41.912A8.83,8.83,0,0,1,8.819,29.938L103.65,29.8a8.794,8.794,0,0,1,8.258,5.643L142.6,115A8.887,8.887,0,0,1,134.343,126.971Z" transform="translate(0.026 -29.8)"></path> </g> <g id="Group_4047" data-name="Group 4047" class="cls-3" transform="translate(47.623 21.196)"> <path id="Path_9228" data-name="Path 9228" class="cls-4" d="M78.516,104.934c-16.792,0-35.648-13.213-41.841-29.316-3.166-8.12-2.753-15.828,1.239-21.609C41.629,48.5,48.1,45.338,56.081,45.2a1.514,1.514,0,0,1,1.376.826l10.6,27.527H97.372a1.394,1.394,0,0,1,1.239.826c3.166,8.258,2.753,15.966-1.239,21.746s-10.6,8.809-18.856,8.809ZM55.118,48.09c-6.607.413-11.974,3.028-15,7.57C36.674,60.615,36.4,67.5,39.289,74.654c5.918,15.278,23.536,27.527,39.364,27.527h0c7.295,0,13.075-2.615,16.379-7.432s3.716-11.286,1.239-18.306H66.954a1.394,1.394,0,0,1-1.239-.826Z" transform="translate(-34.574 -45.2)"></path> </g> <g id="Group_4048" data-name="Group 4048" class="cls-3" transform="translate(70.966 16.516)"> <path id="Path_9229" data-name="Path 9229" class="cls-4" d="M63.874,72.906a1.394,1.394,0,0,1-1.239-.826L51.625,43.589a1.338,1.338,0,0,1,.138-1.239,1.252,1.252,0,0,1,1.1-.551h.551c16.792,0,35.648,13.213,41.841,29.316a1.293,1.293,0,0,1-.138,1.239,1.252,1.252,0,0,1-1.1.551ZM54.928,44.415l9.91,25.738H92.09C85.621,56.252,69.655,45.1,54.928,44.415Z" transform="translate(-51.534 -41.8)"></path> </g> <path id="Path_9230" data-name="Path 9230" class="cls-5" d="M21.8,47.694c1.1,2.89-.413,5.093-3.3,5.093A8.655,8.655,0,0,1,11.2,47.694c-1.1-2.89.413-5.093,3.3-5.093A8.029,8.029,0,0,1,21.8,47.694Z" transform="translate(4.115 -24.984)"></path> <path id="Path_9231" data-name="Path 9231" class="cls-5" d="M27,61.093c1.1,2.89-.413,5.093-3.3,5.093A8.655,8.655,0,0,1,16.4,61.093C15.3,58.2,16.811,56,19.7,56A8.655,8.655,0,0,1,27,61.093Z" transform="translate(6.073 -19.939)"></path> <path id="Path_9232" data-name="Path 9232" class="cls-5" d="M32.2,74.493c1.1,2.89-.413,5.093-3.3,5.093A8.655,8.655,0,0,1,21.6,74.493c-1.1-2.89.413-5.093,3.3-5.093A8.655,8.655,0,0,1,32.2,74.493Z" transform="translate(8.03 -14.896)"></path> <path id="Path_9233" data-name="Path 9233" class="cls-5" d="M37.4,87.993c1.1,2.89-.413,5.093-3.3,5.093A8.655,8.655,0,0,1,26.8,87.993c-1.1-2.89.413-5.093,3.3-5.093A8.408,8.408,0,0,1,37.4,87.993Z" transform="translate(9.987 -9.815)"></path> </g> <g id="Group_4052" data-name="Group 4052" transform="translate(307.062 265.775)"> <g id="Group_4050" data-name="Group 4050"> <path id="Path_9234" data-name="Path 9234" class="cls-27" d="M340.782,309.127l-110.8-.138a6.805,6.805,0,0,1-6.056-10.047l48.585-91.115A27.846,27.846,0,0,1,297.152,193.1l110.8.138A6.805,6.805,0,0,1,414,203.285L365.419,294.4A27.846,27.846,0,0,1,340.782,309.127Z" transform="translate(-223.09 -193.1)"></path> </g> <g id="Group_4051" data-name="Group 4051" class="cls-3" transform="translate(58.235 26.564)"> <path id="Path_9235" data-name="Path 9235" class="cls-4" d="M308.473,254.428a4.019,4.019,0,0,1-1.239-.275c-1.652-.688-1.652-2.89.138-4.817a44.118,44.118,0,0,0,5.781-8.121c3.028-5.781,3.854-11.286,2.2-15.69-.551-1.514.826-3.991,3.3-5.368,2.34-1.376,4.817-1.239,5.505.413,2.2,5.781,1.239,13.075-2.89,20.508a46.2,46.2,0,0,1-7.708,10.6A6.835,6.835,0,0,1,308.473,254.428Z" transform="translate(-250.117 -209.834)"></path> <path id="Path_9236" data-name="Path 9236" class="cls-4" d="M282.267,262.76c-2.065,0-3.028-1.514-2.065-3.579a7.846,7.846,0,0,1,5.918-3.991c7.295-.275,15.553-3.441,22.848-8.533,2.2-1.514,4.955-1.789,5.918-.413s0,3.716-2.34,5.368c-9.634,6.744-20.508,10.736-30,11.149Z" transform="translate(-259.972 -199.998)"></path> <path id="Path_9237" data-name="Path 9237" class="cls-4" d="M278.2,274.061a3.03,3.03,0,0,1-1.1-.138c-11.974-4.129-15.14-16.241-7.708-30.142,9.222-17.342,31.794-31.381,50.237-31.381,5.643,0,10.46,1.376,14.039,3.854,1.376.963.963,3.3-1.1,5.092s-4.817,2.477-6.194,1.514c-2.753-1.927-6.331-2.89-10.736-3.028-14.039,0-31.243,10.736-38.263,23.811-5.643,10.6-3.3,19.82,5.781,22.985,1.789.551,1.927,2.753.138,4.68A6.827,6.827,0,0,1,278.2,274.061Z" transform="translate(-265.401 -212.4)"></path> </g> <path id="Path_9238" data-name="Path 9238" class="cls-5" d="M285.253,224.336a1.563,1.563,0,0,1-1.1-.413l-4.542-6.469H262.13c-1.1,0-1.514-.826-.963-1.927a3.734,3.734,0,0,1,3.028-1.927H282.5a1.563,1.563,0,0,1,1.1.413l4.817,6.882c.413.688,0,1.927-1.239,2.615A2.717,2.717,0,0,1,285.253,224.336Z" transform="translate(-208.852 -185.385)"></path> <path id="Path_9239" data-name="Path 9239" class="cls-5" d="M315.44,269.327h-22.3a1.107,1.107,0,0,1-1.239-.826l-1.1-7.708c-.138-.826.826-2.065,2.065-2.615s2.34-.275,2.477.551l.963,6.882h21.2c1.1,0,1.514.826.963,1.927A3.924,3.924,0,0,1,315.44,269.327Z" transform="translate(-197.611 -168.715)"></path> <path id="Path_9240" data-name="Path 9240" class="cls-5" d="M322.234,229.746c-.551,0-.963-.138-1.1-.551-.413-.826.275-1.927,1.514-2.615l8.671-5.23a3.912,3.912,0,0,1,1.652-.551h17.755c1.1,0,1.514.826.964,1.927a3.734,3.734,0,0,1-3.028,1.927H331.731l-7.845,4.68A4.146,4.146,0,0,1,322.234,229.746Z" transform="translate(-186.236 -182.675)"></path> <path id="Path_9241" data-name="Path 9241" class="cls-5" d="M301.281,236.894a12.113,12.113,0,0,1-9.772,6.056c-3.579,0-5.093-2.753-3.3-6.194a12.113,12.113,0,0,1,9.772-6.056C301.557,230.7,303.071,233.453,301.281,236.894Z" transform="translate(-198.867 -178.949)"></path> </g> <g id="Group_4055" data-name="Group 4055" transform="translate(307.736 74.048)"> <path id="Path_9242" data-name="Path 9242" class="cls-28" d="M291.324,104.588H229.251a5.7,5.7,0,0,1-4.817-8.671l24.5-39.5A5.772,5.772,0,0,1,253.75,53.8h62.074a5.7,5.7,0,0,1,4.817,8.671l-24.5,39.364A5.592,5.592,0,0,1,291.324,104.588Z" transform="translate(-223.58 -53.8)"></path> <g id="Group_4053" data-name="Group 4053" class="cls-3" transform="translate(35.88 19.957)"> <path id="Path_9243" data-name="Path 9243" class="cls-4" d="M256.326,70.64a5.8,5.8,0,0,1-4.68,2.34c-1.789,0-2.477-1.1-1.652-2.34a5.8,5.8,0,0,1,4.68-2.34C256.464,68.3,257.152,69.4,256.326,70.64Z" transform="translate(-249.648 -68.3)"></path> <path id="Path_9244" data-name="Path 9244" class="cls-4" d="M265.526,70.64a5.8,5.8,0,0,1-4.68,2.34c-1.789,0-2.477-1.1-1.652-2.34a5.8,5.8,0,0,1,4.68-2.34C265.664,68.3,266.352,69.4,265.526,70.64Z" transform="translate(-246.186 -68.3)"></path> <path id="Path_9245" data-name="Path 9245" class="cls-4" d="M274.826,70.64a5.8,5.8,0,0,1-4.68,2.34c-1.789,0-2.477-1.1-1.652-2.34a5.8,5.8,0,0,1,4.68-2.34C274.964,68.3,275.652,69.4,274.826,70.64Z" transform="translate(-242.685 -68.3)"></path> </g> <g id="Group_4054" data-name="Group 4054" class="cls-3" transform="translate(20.656 10.047)"> <path id="Path_9246" data-name="Path 9246" class="cls-4" d="M241.77,94.546a1.325,1.325,0,0,1-1.1-2.065l4.129-6.744h-1.1a5.173,5.173,0,0,1-4.68-2.2,4.315,4.315,0,0,1,.413-4.4l7.983-12.938c1.789-2.89,6.194-5.093,9.91-5.093h39.089a5.173,5.173,0,0,1,4.68,2.2,4.315,4.315,0,0,1-.413,4.4L292.7,80.644c-1.789,2.89-6.194,5.093-9.91,5.093H257.461L242.6,94.408C242.321,94.408,242.046,94.546,241.77,94.546Zm15.553-30.693c-2.753,0-6.331,1.789-7.57,3.854L241.77,80.644c-.413.688-.551,1.239-.275,1.652s.963.826,2.34.826h3.579a1.445,1.445,0,0,1,1.239.688,1.25,1.25,0,0,1,0,1.376l-2.615,4.129,10.46-6.056a1.241,1.241,0,0,1,.688-.138h25.6c2.753,0,6.331-1.789,7.57-3.854l7.983-12.938c.413-.688.551-1.239.275-1.652s-.963-.826-2.34-.826Z" transform="translate(-238.587 -61.1)"></path> </g> </g> <g id="Group_4056" data-name="Group 4056" transform="translate(165.861 124.285)"> <path id="Path_9247" data-name="Path 9247" class="cls-4" d="M121.876,124.571l-1.376-.138c1.1-15.415,14.452-33.308,15-34.134l1.1.826C136.6,91.4,122.84,109.569,121.876,124.571Z" transform="translate(-120.5 -90.3)"></path> </g> </g> </svg> 